<svg xmlns="http://www.w3.org/2000/svg" viewBox="0 0 147.92 144"><defs><style>.cls-1{fill:#376a8d;}</style></defs><title>gitBlue</title><g id="Layer_2" data-name="Layer 2"><g id="Layer_1-2" data-name="Layer 1"><path class="cls-1" d="M147.92,74a74,74,0,1,0-98,70c1.77-1.28,3.81-2.86,3.81-5.51,0-4.07-.09-14.53-.09-14.53a51.9,51.9,0,0,1-7.79.54c-11.54,0-15.19-7.32-16.93-11.42a20,20,0,0,0-8.31-9.86c-1.91-1.23-2.35-2.68-.14-3.09,10.22-1.92,12.83,11.52,19.66,13.66,4.87,1.53,11.13.87,14.25-1.13.41-4.11,3.38-7.66,5.86-9.53-17.36-1.66-27.65-7.65-33-17.29l-.58-1.08-1.34-3.06-.39-1.1a51.87,51.87,0,0,1-2.41-16.75c0-11.11,3.48-15.3,8.15-21.22-3.57-12.67,1.28-21.33,1.28-21.33s7.52-1.55,21.72,8.57c7.7-3.28,28.22-3.55,37.93-.73,6-3.92,16.86-9.48,21.26-7.92,1.19,1.91,3.76,7.46,1.56,19.68,1.49,2.67,9.25,8.38,9.28,24.51a63.48,63.48,0,0,1-1.9,15.22l-.64,2.17s-.37,1-.77,2l-.47,1.08C114.76,97.05,104.2,101.24,87.13,103c5.53,3.46,7.12,7.81,7.12,19.56s-.16,13.34-.12,16c0,2.39,1.94,4.11,3.66,5.41A74,74,0,0,0,147.92,74Z"/></g></g></svg>