<svg xmlns="http://www.w3.org/2000/svg" viewBox="0 0 147.69 98.46"><defs><style>.cls-1{fill:#376a8d;}</style></defs><title>mailBlue</title><g id="Layer_2" data-name="Layer 2"><g id="Layer_1-2" data-name="Layer 1"><path class="cls-1" d="M11.36,0A11.34,11.34,0,0,0,7.1.83L70.47,57.28a4.73,4.73,0,0,0,6.87,0L140.59.83A11.34,11.34,0,0,0,136.33,0ZM.12,9.76A12,12,0,0,0,0,11.36V87.1a11.42,11.42,0,0,0,.89,4.38l43.73-42L.12,9.76Zm147.45,0L103.19,49.41l43.67,42a11.46,11.46,0,0,0,.83-4.32V11.36a12,12,0,0,0-.12-1.6ZM94.67,57,84.91,65.8a16.66,16.66,0,0,1-22,0l-9.76-8.7L10.06,98.4a11.21,11.21,0,0,0,1.3.06h125c.41,0,.84,0,1.24-.06Z"/></g></g></svg>